<svg xmlns="http://www.w3.org/2000/svg" width="1280" height="320" viewBox="0 0 1280 320">
  <defs>
    <linearGradient id="bg" x1="0%" y1="0%" x2="100%" y2="100%">
      <stop offset="0%" stop-color="#000a1e"/>
      <stop offset="55%" stop-color="#001a3d"/>
      <stop offset="100%" stop-color="#002147"/>
    </linearGradient>
    <linearGradient id="glow" x1="0%" y1="50%" x2="100%" y2="50%">
      <stop offset="0%" stop-color="#fe6b00" stop-opacity="0"/>
      <stop offset="45%" stop-color="#fe6b00" stop-opacity="0.35"/>
      <stop offset="100%" stop-color="#fe6b00" stop-opacity="0"/>
    </linearGradient>
    <linearGradient id="road" x1="0%" y1="0%" x2="0%" y2="100%">
      <stop offset="0%" stop-color="#708ab5" stop-opacity="0"/>
      <stop offset="100%" stop-color="#708ab5" stop-opacity="0.25"/>
    </linearGradient>
    <radialGradient id="orb" cx="78%" cy="35%" r="45%">
      <stop offset="0%" stop-color="#fe6b00" stop-opacity="0.22"/>
      <stop offset="100%" stop-color="#fe6b00" stop-opacity="0"/>
    </radialGradient>
    <clipPath id="frame">
      <rect width="1280" height="320" rx="16"/>
    </clipPath>
  </defs>
  <g clip-path="url(#frame)">
    <rect width="1280" height="320" fill="url(#bg)"/>
    <rect width="1280" height="320" fill="url(#orb)"/>
    <rect y="140" width="1280" height="180" fill="url(#glow)"/>
    <g stroke="#708ab5" stroke-opacity="0.12" stroke-width="1">
      <line x1="0" y1="80" x2="1280" y2="80"/>
      <line x1="0" y1="160" x2="1280" y2="160"/>
      <line x1="0" y1="240" x2="1280" y2="240"/>
      <line x1="200" y1="0" x2="200" y2="320"/>
      <line x1="400" y1="0" x2="400" y2="320"/>
      <line x1="600" y1="0" x2="600" y2="320"/>
      <line x1="800" y1="0" x2="800" y2="320"/>
      <line x1="1000" y1="0" x2="1000" y2="320"/>
    </g>
    <g fill="none" stroke="#aec7f6" stroke-opacity="0.35" stroke-width="2" stroke-dasharray="18 14">
      <path d="M0 268 Q320 248 640 268 T1280 268"/>
      <path d="M0 292 Q400 272 800 292 T1280 292"/>
    </g>
    <rect y="250" width="1280" height="70" fill="url(#road)"/>
    <rect x="0" y="0" width="6" height="320" fill="#fe6b00"/>
    <path d="M1180 0 L1280 0 L1280 120 L1120 0 Z" fill="#fe6b00" opacity="0.18"/>
    <g transform="translate(1040 52)">
      <rect x="0" y="36" width="14" height="44" rx="3" fill="#249c53" opacity="0.9"/>
      <rect x="22" y="24" width="14" height="56" rx="3" fill="#249c53" opacity="0.55"/>
      <rect x="44" y="12" width="14" height="68" rx="3" fill="#708ab5" opacity="0.35"/>
      <rect x="66" y="0" width="14" height="80" rx="3" fill="#708ab5" opacity="0.2"/>
      <text x="0" y="108" fill="#708ab5" font-family="Segoe UI, system-ui, sans-serif" font-size="11" letter-spacing="0.08em">SIGNAL</text>
      <line x1="0" y1="118" x2="80" y2="118" stroke="#fe6b00" stroke-width="2" stroke-dasharray="4 6" opacity="0.7"/>
    </g>
    <g transform="translate(920 88)">
      <circle cx="0" cy="0" r="52" fill="none" stroke="#fe6b00" stroke-width="3" stroke-opacity="0.5" stroke-dasharray="8 6"/>
      <circle cx="0" cy="0" r="38" fill="none" stroke="#fe6b00" stroke-width="2" stroke-opacity="0.25"/>
      <text x="-42" y="78" fill="#ffb693" font-family="Segoe UI, system-ui, sans-serif" font-size="11" font-weight="600" letter-spacing="0.12em">GOLDEN HOUR</text>
    </g>
    <text x="56" y="118" fill="#ffffff" font-family="Segoe UI, system-ui, sans-serif" font-size="56" font-weight="700" letter-spacing="-0.02em">NovaDrive</text>
    <text x="58" y="158" fill="#ffb693" font-family="Segoe UI, system-ui, sans-serif" font-size="22" font-weight="500">Signal drops. The critical minute does not.</text>
    <text x="58" y="196" fill="#aec7f6" font-family="Segoe UI, system-ui, sans-serif" font-size="15">Offline-first Golden Hour co-pilot for NH corridor safety</text>
    <g transform="translate(56 228)">
      <rect width="118" height="32" rx="16" fill="#002147" stroke="#708ab5" stroke-opacity="0.4"/>
      <text x="59" y="21" text-anchor="middle" fill="#ffffff" font-family="Segoe UI, system-ui, sans-serif" font-size="12" font-weight="600">Team Vortex</text>
    </g>
    <g transform="translate(186 228)">
      <rect width="200" height="32" rx="16" fill="#002147" stroke="#708ab5" stroke-opacity="0.4"/>
      <text x="100" y="21" text-anchor="middle" fill="#ffffff" font-family="Segoe UI, system-ui, sans-serif" font-size="12" font-weight="600">IIT Madras RoadSoS 2026</text>
    </g>
    <g transform="translate(398 228)">
      <rect width="108" height="32" rx="16" fill="#fe6b00"/>
      <text x="54" y="21" text-anchor="middle" fill="#ffffff" font-family="Segoe UI, system-ui, sans-serif" font-size="12" font-weight="700">P0 Expo</text>
    </g>
    <g transform="translate(518 228)">
      <rect width="130" height="32" rx="16" fill="#249c53" fill-opacity="0.25" stroke="#89faa5" stroke-opacity="0.5"/>
      <text x="65" y="21" text-anchor="middle" fill="#89faa5" font-family="Segoe UI, system-ui, sans-serif" font-size="12" font-weight="600">START GHP QR</text>
    </g>
    <circle cx="1224" cy="284" r="4" fill="#249c53"/>
    <text x="56" y="300" fill="#708ab5" font-family="Segoe UI, system-ui, sans-serif" font-size="11" letter-spacing="0.06em">CoERS and RBG Labs / MoRTH Road Safety Hackathon</text>
  </g>
</svg>
